mtllib solidos.mtl
s 1
v 0.35355 0.35355 -1.06066
v -0.35355 0.35355 1.06066
v -0.35355 -0.35355 -1.06066
v 1.06066 -0.35355 0.35355
v 1.06066 0.35355 -0.35355
v -1.06066 0.35355 0.35355
v -1.06066 -0.35355 -0.35355
v 0.35355 -1.06066 0.35355
v 0.35355 1.06066 -0.35355
v -0.35355 1.06066 0.35355
v -0.35355 -1.06066 -0.35355
v 0.589256 0.589256 1.29636
v 1.29636 0.589256 0.589256
v 0.589256 1.29636 0.589256
v 0.35355 -0.35355 1.06066
v -0.85 -0.85 -0.85
vn 0.0520 -0.5479 0.8349
vn -0.5479 0.0520 0.8349
vn -0.9623 0.1925 0.1925
vn -0.9958 -0.0650 -0.0650
vn -0.0650 -0.9958 -0.0650
vn 0.1925 -0.9623 0.1925
vn 0.8349 0.0520 -0.5479
vn 0.8349 -0.5479 0.0520
vn -0.0650 -0.0650 -0.9958
vn 0.1925 0.1924 -0.9623
vn -0.5479 0.8349 0.0520
vn 0.0520 0.8349 -0.5479
vn 0.9428 0.2357 0.2357
vn 0.2357 0.2357 0.9428
vn 0.2357 0.9428 0.2357
vn -0.5774 -0.5774 -0.5774
vt 0 0
vt 0.5 0
vt 1.0 0
vt 0 0.5
vt 0.5 0.5
vt 1.0 0.5
vt 0 1.0
vt 0.5 1.0
vt 1.0 1.0
vt 0.25 0
vt 0.75 0
vt 1 0.25 
vt 1 0.75
vt 0.75 1
vt 0.25 1
vt 0 0.75
vt 0 0.25
usemtl Cor2
f 15/1/1 2/2/2 6/3/3 7/4/4 11/5/5 8/6/6
f 5/2/7 4/3/8 8/4/6 11/5/5 3/6/9 1/7/10
f 10/3/11 9/4/12 1/5/10 3/8/9 7/6/4 6/7/3
f 15/9/1 4/10/8 13/11/13 12/12/14
f 5/10/7 9/13/12 14/14/15 13/9/13
f 10/14/11 2/12/2 12/15/14 14/16/15
f 15/9/1 8/17/6 4/12/8
f 5/17/7 1/10/10 9/11/12
f 10/12/11 6/15/3 2/16/2
f 15/17/1 12/10/14 2/11/2
f 5/15/7 13/16/13 4/14/8
f 10/15/11 14/11/15 9/17/12
f 12/15/14 13/16/13 14/11/15
f 16/9/16 7/12/4 3/15/9
f 16/17/16 11/10/5 7/15/4
f 16/16/16 3/13/9 11/11/5