{
   "accessors" : 
   [
      {
         "bufferView" : 0,
         "byteOffset" : 0,
         "componentType" : 5126,
         "count" : 14400,
         "max" : [ 1.7308286933869708, 1.7306779064858593, 2.0 ],
         "min" : [ -1.7302255720551303, -1.7306779064858593, -2.0 ],
         "type" : "VEC3"
      },
      {
         "bufferView" : 1,
         "byteOffset" : 0,
         "componentType" : 5126,
         "count" : 14400,
         "normalized" : false,
         "type" : "VEC2"
      },
      {
         "bufferView" : 2,
         "byteOffset" : 0,
         "componentType" : 5125,
         "count" : 54264,
         "type" : "SCALAR"
      }
   ],
   "asset" : 
   {
      "generator" : "VTK",
      "version" : "2.0"
   },
   "bufferViews" : 
   [
      {
         "buffer" : 0,
         "byteLength" : 172800,
         "byteOffset" : 0
      },
      {
         "buffer" : 1,
         "byteLength" : 115200,
         "byteOffset" : 0
      },
      {
         "buffer" : 2,
         "byteLength" : 217056,
         "byteOffset" : 0
      },
      {
         "buffer" : 3,
         "byteLength" : 188,
         "byteOffset" : 0
      }
   ],
   "buffers" : 
   [
      {
         "byteLength" : 172800,
         "uri" : "data:application/octet-stream;base64,"
      },
      {
         "byteLength" : 115200,
         "uri" : "data:application/octet-stream;base64,"
      },
      {
         "byteLength" : 217056,
         "uri" : "data:application/octet-stream;base64,"
      },
      {
         "byteLength" : 188,
         "uri" : "data:application/octet-stream;base64,"
      }
   ],
   "cameras" : 
   [
      {
         "perspective" : 
         {
            "aspectRatio" : 1.3333333333333333,
            "yfov" : 0.52359877559829882,
            "zfar" : 17.405153445078064,
            "znear" : 8.1098540991401808
         },
         "type" : "perspective"
      }
   ],
   "images" : 
   [
      {
         "bufferView" : 3,
         "mimeType" : "image/png"
      }
   ],
   "materials" : 
   [
      {
         "pbrMetallicRoughness" : 
         {
            "baseColorFactor" : [ 1.0, 1.0, 1.0, 0.84999999999999998 ],
            "baseColorTexture" : 
            {
               "index" : 0,
               "texCoord" : 0
            },
            "metallicFactor" : 0.2,
            "roughnessFactor" : 0.6
         },"doubleSided":true,"alphaMode":"BLEND"
      }
   ],
   "meshes" : 
   [
      {
         "name" : "mesh0",
         "primitives" : 
         [
            {
               "attributes" : 
               {
                  "POSITION" : 0,
                  "TEXCOORD_0" : 1
               },
               "indices" : 2,
               "material" : 0,
               "mode" : 4
            }
         ]
      }
   ],
   "nodes" : 
   [
      {
         "matrix" : 
         [
            0.0,
            0.0,
            1.0000000000000004,
            0.0,
            1.0000000000000004,
            0.0,
            0.0,
            0.0,
            0.0,
            1.0000000000000004,
            0.0,
            0.0,
            0.0,
            0.0,
            0.0,
            1.0
         ],
         "mesh" : 0,
         "name" : "mesh0"
      },
      {
         "camera" : 0,
         "matrix" : 
         [
            1.0,
            0.0,
            0.0,
            0.0,
            0.0,
            1.0,
            0.0,
            0.0,
            0.0,
            0.0,
            1.0,
            0.0,
            -0.00030156066592024189,
            0.0,
            -12.211973837515334,
            1.0
         ],
         "name" : "Camera Node"
      },
      {
         "children" : [ 0, 1 ],
         "name" : "Renderer Node"
      }
   ],
   "samplers" : 
   [
      {
         "magFilter" : 9728,
         "minFilter" : 9728,
         "wrapS" : 33071,
         "wrapT" : 33071
      }
   ],
   "scene" : 0,
   "scenes" : 
   [
      {
         "name" : "Layer 0",
         "nodes" : [ 2 ]
      }
   ],
   "textures" : 
   [
      {
         "sampler" : 0,
         "source" : 0
      }
   ]
}